<?xml version="1.0" encoding="utf-8"?>
<!-- Generator: Adobe Illustrator 22.0.0, SVG Export Plug-In . SVG Version: 6.00 Build 0)  -->
<svg version="1.1" id="Layer_1" xmlns="http://www.w3.org/2000/svg" xmlns:xlink="http://www.w3.org/1999/xlink" x="0px" y="0px"
	 viewBox="0 0 17 16" style="enable-background:new 0 0 17 16;" xml:space="preserve">
<style type="text/css">
	.st0{display:none;fill:#CC0000;}
	.st1{display:none;}
	.st2{display:inline;}
	.st3{fill:#3B5998;}
	.st4{fill:#00ACED;}
	.st5{fill:#CC181E;}
</style>
<rect x="0.2" y="0" class="st0" width="17" height="16"/>
<g id="_x31_" class="st1">
	<g id="footer" transform="translate(-1236.947572, -651.995100)" class="st2">
		<g id="Group-Copy">
			<g transform="translate(1227.000000, 642.000000)">
				<g id="instagram">
					<g id="Shape">
						<path d="M18.5,11.9c1.9,0,2.1,0,2.9,0c1.9,0.1,2.8,1,2.9,2.9c0,0.8,0,1,0,2.9c0,1.9,0,2.1,0,2.9c-0.1,1.9-1,2.8-2.9,2.9
							c-0.8,0-1,0-2.9,0c-1.9,0-2.1,0-2.9,0c-1.9-0.1-2.8-1-2.9-2.9c0-0.8,0-1,0-2.9c0-1.9,0-2.1,0-2.9c0.1-1.9,1-2.8,2.9-2.9
							C16.3,11.9,16.5,11.9,18.5,11.9z M18.5,10.5c-2,0-2.2,0-3,0c-2.6,0.1-4.1,1.6-4.2,4.2c0,0.8,0,1,0,3c0,2,0,2.2,0,3
							c0.1,2.6,1.6,4.1,4.2,4.2c0.8,0,1,0,3,0c2,0,2.2,0,3,0c2.6-0.1,4.1-1.6,4.2-4.2c0-0.8,0-1,0-3c0-2,0-2.2,0-3
							c-0.1-2.6-1.6-4.1-4.2-4.2C20.7,10.6,20.4,10.5,18.5,10.5z M18.5,14c-2.1,0-3.8,1.7-3.8,3.8c0,2.1,1.7,3.8,3.8,3.8
							c2.1,0,3.8-1.7,3.8-3.8S20.5,14,18.5,14z M18.4,20.2c-1.3,0-2.4-1.1-2.4-2.4c0-1.3,1.1-2.4,2.4-2.4c1.3,0,2.4,1.1,2.4,2.4
							c0,0,0,0,0,0C20.9,19.1,19.8,20.2,18.4,20.2z M22.6,13.3c-0.6,0-1,0.5-1,1c0,0.6,0.5,1,1,1c0.6,0,1-0.5,1-1c0,0,0,0,0,0
							C23.6,13.8,23.2,13.3,22.6,13.3L22.6,13.3z"/>
					</g>
				</g>
			</g>
		</g>
	</g>
</g>
<g id="_x32_" class="st1">
	<g id="footer_1_" transform="translate(-1292.947572, -651.995100)" class="st2">
		<g id="Group-Copy_1_">
			<g transform="translate(1227.000000, 642.000000)">
				<g id="facebook" transform="translate(51.000000, 0.000000)">
					<g id="Shape_1_">
						<path class="st3" d="M21.7,15.7h-1.8V18h1.8v7h2.9v-7h2.1l0.2-2.3h-2.3v-1c0-0.6,0.1-0.8,0.7-0.8H27V11h-2.2
							c-2.1,0-3,0.9-3,2.7V15.7z"/>
					</g>
				</g>
			</g>
		</g>
	</g>
</g>
<g id="footer_2_" transform="translate(-1339.947572, -653.995100)" class="st1">
	<g id="Group-Copy_2_" class="st2">
		<g transform="translate(1227.000000, 642.000000)">
			<g id="twitter" transform="translate(101.000000, 0.000000)">
				<g id="Shape_2_">
					<path class="st4" d="M28.7,15.1c-0.6,0.2-1.2,0.4-1.9,0.5c0.7-0.4,1.2-1,1.5-1.8c-0.7,0.4-1.4,0.6-2.1,0.8
						c-0.6-0.6-1.5-1-2.4-1c-1.8,0-3.3,1.4-3.3,3.3c0,0.2,0.1,0.5,0.1,0.7c-2.8-0.1-5.2-1.4-6.8-3.4c-0.3,0.5-0.5,1-0.5,1.6
						c0,1.1,0.6,2.1,1.5,2.7c-0.6,0-1.1-0.1-1.5-0.4v0c0,1.6,1.2,2.9,2.7,3.2c-0.3,0-0.6,0.1-0.9,0.1c-0.2,0-0.4,0-0.6,0
						c0.4,1.3,1.7,2.2,3.1,2.3C16.4,24.5,15,25,13.4,25c-0.3,0-0.6,0-0.8,0c1.5,0.9,3.3,1.4,5.1,1.4c6.1,0,9.4-4.9,9.4-9.3
						c0-0.1,0-0.3,0-0.4C27.7,16.3,28.3,15.7,28.7,15.1z"/>
				</g>
			</g>
		</g>
	</g>
</g>
<g id="Symbols">
	<g id="footer_3_" transform="translate(-1390.947572, -652.995100)">
		<g id="Group-Copy_3_">
			<g transform="translate(1227.000000, 642.000000)">
				<g id="youtube" transform="translate(154.000000, 0.000000)">
					<g id="Fill-1">
						<path class="st5" d="M16.9,21.8l0-4.5l3.8,2.3L16.9,21.8z M25.7,16.4c0,0-0.1-1.1-0.6-1.5c-0.6-0.6-1.2-0.6-1.5-0.7
							c-2.1-0.2-5.2-0.2-5.2-0.2h0c0,0-3.1,0-5.2,0.2c-0.3,0-0.9,0-1.5,0.7c-0.4,0.5-0.6,1.5-0.6,1.5s-0.1,1.3-0.1,2.5v1.2
							c0,1.3,0.1,2.5,0.1,2.5s0.1,1.1,0.6,1.5c0.6,0.6,1.3,0.6,1.6,0.7c1.2,0.1,5,0.2,5,0.2s3.1,0,5.2-0.2c0.3,0,0.9,0,1.5-0.7
							c0.4-0.5,0.6-1.5,0.6-1.5s0.1-1.3,0.1-2.5V19C25.8,17.7,25.7,16.4,25.7,16.4z"/>
					</g>
				</g>
			</g>
		</g>
	</g>
</g>
</svg>
