<?xml version="1.0" encoding="utf-8"?>
<!-- Generator: Adobe Illustrator 22.0.0, SVG Export Plug-In . SVG Version: 6.00 Build 0)  -->
<svg version="1.1" id="Layer_1" xmlns="http://www.w3.org/2000/svg" xmlns:xlink="http://www.w3.org/1999/xlink" x="0px" y="0px"
	 viewBox="0 0 17 16" style="enable-background:new 0 0 17 16;" xml:space="preserve">
<style type="text/css">
	.st0{display:none;fill:#CC0000;}
</style>
<rect class="st0" width="17" height="16"/>
<g id="_x31_">
	<g id="footer" transform="translate(-1236.947572, -651.995100)">
		<g id="Group-Copy">
			<g transform="translate(1227.000000, 642.000000)">
				<g id="instagram">
					<g id="Shape">
						<path d="M18.5,11.9c1.9,0,2.1,0,2.9,0c1.9,0.1,2.8,1,2.9,2.9c0,0.8,0,1,0,2.9c0,1.9,0,2.1,0,2.9c-0.1,1.9-1,2.8-2.9,2.9
							c-0.8,0-1,0-2.9,0c-1.9,0-2.1,0-2.9,0c-1.9-0.1-2.8-1-2.9-2.9c0-0.8,0-1,0-2.9c0-1.9,0-2.1,0-2.9c0.1-1.9,1-2.8,2.9-2.9
							C16.3,11.9,16.5,11.9,18.5,11.9z M18.5,10.5c-2,0-2.2,0-3,0c-2.6,0.1-4.1,1.6-4.2,4.2c0,0.8,0,1,0,3c0,2,0,2.2,0,3
							c0.1,2.6,1.6,4.1,4.2,4.2c0.8,0,1,0,3,0c2,0,2.2,0,3,0c2.6-0.1,4.1-1.6,4.2-4.2c0-0.8,0-1,0-3c0-2,0-2.2,0-3
							c-0.1-2.6-1.6-4.1-4.2-4.2C20.7,10.6,20.4,10.5,18.5,10.5z M18.5,14c-2.1,0-3.8,1.7-3.8,3.8c0,2.1,1.7,3.8,3.8,3.8
							c2.1,0,3.8-1.7,3.8-3.8S20.5,14,18.5,14z M18.4,20.2c-1.3,0-2.4-1.1-2.4-2.4c0-1.3,1.1-2.4,2.4-2.4c1.3,0,2.4,1.1,2.4,2.4
							c0,0,0,0,0,0C20.9,19.1,19.8,20.2,18.4,20.2z M22.6,13.3c-0.6,0-1,0.5-1,1c0,0.6,0.5,1,1,1c0.6,0,1-0.5,1-1c0,0,0,0,0,0
							C23.6,13.8,23.2,13.3,22.6,13.3L22.6,13.3z"/>
					</g>
				</g>
			</g>
		</g>
	</g>
</g>
</svg>
