<?xml version="1.0" encoding="UTF-8"?>
<svg width="25px" height="24px" viewBox="0 0 25 24" version="1.1" xmlns="http://www.w3.org/2000/svg" xmlns:xlink="http://www.w3.org/1999/xlink">
    <!-- Generator: Sketch 49.3 (51167) - http://www.bohemiancoding.com/sketch -->
    <title>Fill 271</title>
    <desc>Created with Sketch.</desc>
    <defs></defs>
    <g id="Page-1" stroke="none" stroke-width="1" fill="none" fill-rule="evenodd">
        <g id="Homepage" transform="translate(-214.000000, -2130.000000)" fill="#347BD9">
            <g id="Products" transform="translate(0.000000, 1763.000000)">
                <g id="Fill-271" transform="translate(214.000000, 367.000000)">
                    <path d="M21.7807308,12.8569309 C19.2476538,16.9792582 12.5322692,22.3639855 12.5322692,22.3639855 C12.5322692,22.3639855 5.8165,16.9792582 3.28380769,12.8569309 C2.34880769,11.3340218 1.51265385,9.88747636 1.51265385,7.88893091 C1.51265385,4.43729455 3.97919231,1.63758545 7.02226923,1.63758545 C9.27111538,1.63758545 11.2018846,3.16922182 12.0580385,5.36020364 L12.0580385,5.35016727 L12.0607308,5.35016727 C12.1241923,5.57838545 12.3099615,5.74464 12.5322692,5.74464 C12.7545769,5.74464 12.9399615,5.57838545 13.0038077,5.35016727 L13.0103462,5.35016727 C13.8684231,3.16398545 15.7957308,1.63758545 18.0418846,1.63758545 C21.0841923,1.63758545 23.5515,4.43729455 23.5515,7.88893091 C23.5515,9.88747636 22.7153462,11.3340218 21.7807308,12.8569309 M18.0418846,0.17664 C15.8365,0.17664 13.7945769,1.39453091 12.5322692,3.37780364 C11.2703462,1.39453091 9.22919231,0.17664 7.02226923,0.17664 C3.27380769,0.17664 0.224576923,3.63613091 0.224576923,7.88893091 C0.224576923,10.4303127 1.33457692,12.23904 2.22688462,13.6921309 C4.85803846,17.9754764 11.5068846,23.3322764 11.7888077,23.5570036 C12.0115,23.7363491 12.2718846,23.8258036 12.5322692,23.8258036 C12.7922692,23.8258036 13.0526538,23.7363491 13.2757308,23.5570036 C13.5572692,23.3322764 20.2061154,17.9754764 22.8376538,13.6921309 C23.7291923,12.23904 24.8395769,10.4303127 24.8395769,7.88893091 C24.8395769,3.63613091 21.7903462,0.17664 18.0418846,0.17664"></path>
                    <path d="M21.2834231,11.17968 L18.6803462,11.17968 C18.5184231,11.17968 18.3726538,11.29488 18.3176538,11.4685527 L17.6695769,13.48848 L16.3576538,9.04368 C16.3053462,8.86826182 16.1618846,8.74826182 15.9980385,8.74477091 C15.8272692,8.73866182 15.6868846,8.85560727 15.6291923,9.02928 L14.4203462,12.6755345 L13.9230385,11.3494255 C13.8622692,11.1875345 13.7226538,11.0823709 13.5676538,11.0823709 L11.2303462,11.0823709 C11.0665,11.0823709 10.9207308,11.2001891 10.8661154,11.3747345 L10.2138077,13.4705891 L8.90765385,9.04368 C8.85573077,8.86826182 8.71188462,8.74826182 8.54803846,8.74477091 C8.38265385,8.73866182 8.23726923,8.85560727 8.17919231,9.02928 L6.97034615,12.6755345 L6.47419231,11.3494255 C6.41303846,11.1875345 6.27303846,11.0823709 6.11803846,11.0823709 L3.78034615,11.0823709 C3.56688462,11.0823709 3.39380769,11.2787345 3.39380769,11.52048 C3.39380769,11.7635345 3.56688462,11.9594618 3.78034615,11.9594618 L5.86265385,11.9594618 L6.63611538,14.0252073 C6.69842308,14.1905891 6.83957692,14.2905164 7.00034615,14.2931345 C7.15803846,14.2887709 7.29803846,14.1761891 7.35419231,14.0081891 L8.51996154,10.4928436 L9.83726923,14.9577164 C9.88957692,15.13488 10.0357308,15.2553164 10.2007308,15.2570618 L10.2038077,15.2570618 C10.3676538,15.2570618 10.5138077,15.1401164 10.5680385,14.9646982 L11.5038077,11.9594618 L13.3115,11.9594618 L14.0861154,14.0252073 C14.1484231,14.1905891 14.2988077,14.2905164 14.4503462,14.2931345 C14.6084231,14.2887709 14.7488077,14.1761891 14.8041923,14.0081891 L15.9703462,10.4928436 L17.2868846,14.9577164 C17.3395769,15.1344436 17.4845769,15.2544436 17.6491923,15.2570618 L17.6534231,15.2570618 C17.8157308,15.2570618 17.9615,15.1418618 18.0172692,14.9681891 L18.9511154,12.0567709 L21.2834231,12.0567709 C21.4968846,12.0567709 21.6695769,11.8599709 21.6695769,11.6177891 C21.6695769,11.3756073 21.4968846,11.17968 21.2834231,11.17968" id="Fill-272"></path>
                </g>
            </g>
        </g>
    </g>
</svg>